<?xml version="1.0" standalone="no"?>
<!DOCTYPE svg PUBLIC "-//W3C//DTD SVG 20010904//EN"
 "http://www.w3.org/TR/2001/REC-SVG-20010904/DTD/svg10.dtd">
<svg version="1.0" xmlns="http://www.w3.org/2000/svg"
 width="1408.000000pt" height="768.000000pt" viewBox="0 0 1408.000000 768.000000"
 preserveAspectRatio="xMidYMid meet">

<g transform="translate(0.000000,768.000000) scale(0.100000,-0.100000)"
fill="#000000" stroke="none">
<path d="M6962 5871 c-26 -123 -79 -267 -141 -386 -59 -112 -71 -134 -94 -159
-10 -11 -15 -26 -13 -33 3 -7 0 -12 -7 -10 -7 1 -11 -3 -10 -9 1 -7 -14 -29
-34 -50 -19 -22 -29 -30 -22 -19 7 12 1 9 -14 -7 -15 -15 -27 -31 -27 -35 0
-4 14 -28 31 -53 75 -111 124 -244 154 -414 8 -49 15 -90 15 -92 0 -2 47 -4
105 -4 l105 0 0 206 c0 197 -1 205 -19 199 -13 -4 -26 4 -44 25 -26 30 -45 95
-33 107 3 4 6 -5 6 -18 0 -14 6 -33 13 -42 10 -15 12 -11 9 28 -4 42 -1 49 31
79 l36 34 2 373 c1 318 -1 374 -13 377 -11 2 -20 -23 -36 -97z m35 27 c-3 -8
-6 -5 -6 6 -1 11 2 17 5 13 3 -3 4 -12 1 -19z"/>
<path d="M7070 5590 c0 -258 3 -380 10 -380 6 0 22 -12 35 -26 30 -32 34 -96
8 -134 -9 -14 -10 -19 -3 -12 22 19 32 14 13 -6 -10 -11 -21 -17 -25 -15 -5 2
-8 0 -8 -6 0 -6 -7 -8 -15 -5 -13 5 -15 -21 -15 -200 l0 -206 109 0 110 0 6
48 c25 177 72 320 145 442 l48 81 -50 57 c-146 165 -271 425 -328 685 -8 35
-18 57 -27 57 -11 0 -13 -69 -13 -380z m27 308 c-3 -8 -6 -5 -6 6 -1 11 2 17
5 13 3 -3 4 -12 1 -19z m0 -340 c-2 -24 -4 -5 -4 42 0 47 2 66 4 43 2 -24 2
-62 0 -85z m234 -212 c25 -39 64 -93 87 -119 23 -27 42 -53 42 -59 0 -6 -10 3
-22 20 -13 17 -48 63 -79 104 -31 40 -66 93 -78 118 -23 48 -20 45 50 -64z
m-234 -83 c-2 -16 -4 -3 -4 27 0 30 2 43 4 28 2 -16 2 -40 0 -55z m63 -190
c-11 -17 -11 -17 -6 0 3 10 7 35 8 55 l1 37 4 -37 c2 -21 -1 -46 -7 -55z"/>
<path d="M7154 5943 c3 -10 14 -52 26 -93 12 -41 24 -82 27 -90 4 -8 7 -17 8
-20 15 -62 93 -235 101 -227 3 3 -2 19 -11 36 -8 17 -12 31 -7 31 5 0 14 -10
20 -22 10 -23 11 -23 11 5 1 15 5 27 10 27 6 0 10 -33 10 -73 0 -59 5 -81 25
-116 l24 -44 1 128 c1 71 4 131 6 134 3 2 5 -59 5 -135 0 -113 3 -144 16 -160
8 -10 13 -13 9 -6 -4 7 -3 70 1 140 9 157 24 120 24 -60 0 -111 1 -118 26
-147 l26 -31 144 0 c96 0 143 -3 139 -10 -4 -6 -10 -8 -14 -5 -5 2 -6 -7 -3
-20 4 -21 1 -25 -21 -25 -29 0 -46 18 -28 29 7 4 -2 8 -19 8 -17 0 -30 -6 -30
-13 0 -8 -8 -10 -22 -6 -21 5 -22 4 -7 -11 9 -9 38 -17 65 -20 27 -2 -7 -4
-75 -5 -68 -1 -122 -4 -120 -6 2 -3 59 -6 127 -7 l122 -2 -1 -111 c0 -61 -4
-131 -9 -156 -7 -41 -8 -39 -8 30 -1 184 -3 220 -12 220 -5 0 -10 -8 -10 -17
0 -11 -3 -14 -8 -7 -4 6 -25 14 -47 18 l-40 8 19 -21 c12 -13 22 -17 26 -11 4
7 14 4 26 -7 16 -14 21 -31 22 -73 0 -30 -5 -61 -11 -69 -9 -11 -9 -15 1 -18
13 -5 17 -23 4 -23 -5 0 -15 12 -23 28 -8 15 -18 30 -24 34 -5 4 -6 10 -2 15
5 4 12 1 17 -7 7 -12 12 -12 22 -2 9 9 9 12 0 12 -12 0 -12 61 1 71 4 3 0 12
-9 20 -16 12 -17 12 -11 -3 7 -19 -7 -25 -18 -8 -3 6 -11 10 -17 10 -7 0 -7
-5 1 -14 9 -11 9 -15 0 -18 -7 -2 -9 -10 -5 -16 10 -17 26 -15 20 3 -4 8 -1
15 5 15 20 0 11 -28 -15 -49 -37 -29 -39 -65 -6 -87 38 -25 52 -40 52 -58 0
-8 4 -17 9 -21 14 -8 -6 -60 -36 -89 -36 -36 -73 -34 -117 8 -28 26 -36 41
-36 69 0 20 5 39 10 42 15 9 12 27 -2 19 -7 -4 -10 -4 -6 1 4 4 3 14 -4 22 -8
10 -8 17 0 25 7 7 7 17 0 34 -9 19 -8 28 7 44 18 20 18 21 -1 14 -17 -7 -17
-6 -6 9 8 8 20 13 28 10 8 -3 14 -1 14 5 0 6 -11 9 -26 7 -20 -2 -24 1 -22 18
2 11 10 23 18 25 13 5 13 3 1 -11 -22 -28 1 -19 37 13 17 16 32 31 32 33 0 8
-50 -6 -56 -14 -3 -5 -12 -9 -20 -9 -8 0 -13 4 -9 9 3 5 1 12 -5 16 -7 4 -10
-55 -10 -176 0 -133 -3 -180 -11 -172 -7 7 -10 62 -7 162 2 128 1 149 -10 134
-28 -37 -42 -72 -32 -78 6 -4 10 -55 10 -121 0 -90 -3 -114 -14 -114 -10 0
-13 23 -12 110 1 72 -2 106 -9 99 -6 -6 -12 -183 -15 -467 l-5 -457 -5 420 -5
420 -18 -70 c-28 -107 -34 -208 -13 -240 25 -38 23 -110 -4 -147 -21 -29 -22
-36 -15 -140 9 -140 39 -289 62 -305 12 -10 75 -13 230 -13 l213 0 0 222 c0
256 9 301 73 374 42 48 87 75 155 93 28 8 42 17 42 29 0 9 2 289 4 622 2 333
2 617 -1 633 l-5 27 -485 0 c-457 0 -484 -1 -479 -17z m340 -88 c-4 -8 -11
-15 -16 -15 -6 0 2 -10 18 -22 16 -13 31 -26 32 -30 8 -17 30 -6 36 17 9 35
23 31 22 -5 -1 -25 -5 -30 -27 -30 -15 0 -41 13 -60 30 -19 16 -37 30 -41 30
-10 0 24 38 34 39 4 1 5 -6 2 -14z m216 5 c-19 -13 -30 -13 -30 0 0 6 10 10
23 10 18 0 19 -2 7 -10z m240 0 c0 -5 -4 -10 -10 -10 -5 0 -10 5 -10 10 0 6 5
10 10 10 6 0 10 -4 10 -10z m-266 -32 c-5 -8 -44 13 -44 23 0 4 11 2 24 -4 13
-7 22 -15 20 -19z m79 7 c-3 -9 -8 -14 -10 -11 -3 3 -2 9 2 15 9 16 15 13 8
-4z m-408 -5 c-3 -5 -11 -10 -16 -10 -6 0 -7 5 -4 10 3 6 11 10 16 10 6 0 7
-4 4 -10z m199 -5 c-4 -8 -14 -15 -23 -15 -14 1 -13 3 3 15 25 19 27 19 20 0z
m183 9 c-3 -3 -12 -4 -19 -1 -8 3 -5 6 6 6 11 1 17 -2 13 -5z m80 -6 c13 -17
11 -50 -3 -55 -7 -2 -10 7 -8 27 2 16 -1 30 -6 30 -6 0 -10 -4 -10 -10 0 -5
-5 -10 -11 -10 -8 0 -8 5 1 15 15 18 25 19 37 3z m84 -11 c-10 -9 -11 -8 -5 6
3 10 9 15 12 12 3 -3 0 -11 -7 -18z m126 -14 c-3 -3 -11 -2 -17 2 -8 5 -7 11
2 22 12 15 13 14 16 -1 2 -10 1 -20 -1 -23z m-624 10 c-3 -7 1 -13 8 -13 7 0
10 -3 7 -6 -8 -7 -48 14 -48 24 0 4 8 8 19 8 11 0 17 -5 14 -13z m-138 -31
c-17 -15 -18 -15 -6 0 7 9 9 23 5 30 -6 10 -4 11 7 0 11 -10 10 -15 -6 -30z
m235 -6 c0 -2 -11 -3 -25 -3 -13 0 -22 4 -19 9 3 5 0 16 -8 26 -8 10 -1 8 20
-7 17 -12 32 -24 32 -25z m197 8 c7 3 13 1 13 -4 0 -16 -32 -12 -52 7 -17 15
-19 15 -38 -2 -11 -10 -20 -15 -20 -12 0 3 10 15 21 26 21 19 21 19 42 0 12
-11 27 -17 34 -15z m17 28 c2 -4 -5 -9 -17 -9 -17 -2 -19 0 -7 7 18 12 18 12
24 2z m-350 -18 c3 -8 2 -12 -4 -9 -6 3 -10 1 -10 -4 0 -6 -5 -11 -10 -11 -6
0 -5 8 2 20 15 24 14 24 22 4z m396 -19 c0 -5 -5 -3 -10 5 -5 8 -10 20 -10 25
0 6 5 3 10 -5 5 -8 10 -19 10 -25z m30 15 c0 -5 -4 -10 -10 -10 -5 0 -10 5
-10 10 0 6 5 10 10 10 6 0 10 -4 10 -10z m-350 -10 c0 -5 -5 -10 -11 -10 -5 0
-7 5 -4 10 3 6 8 10 11 10 2 0 4 -4 4 -10z m465 0 c3 -5 1 -10 -4 -10 -6 0
-11 5 -11 10 0 6 2 10 4 10 3 0 8 -4 11 -10z m118 -30 c-3 -3 -8 0 -10 7 -2 7
-12 9 -21 6 -15 -6 -15 -5 -3 10 13 16 14 16 26 0 8 -10 11 -20 8 -23z m-40
-21 c-8 -8 -16 -8 -30 1 -15 10 -15 11 -1 6 10 -3 20 -1 24 5 3 6 9 8 12 4 3
-3 1 -10 -5 -16z m47 -41 c0 -12 -14 -10 -28 4 -19 19 -14 29 8 16 11 -7 20
-16 20 -20z m-753 16 c-3 -3 -12 -4 -19 -1 -8 3 -5 6 6 6 11 1 17 -2 13 -5z
m694 -21 c13 -15 12 -15 -8 -4 -24 12 -29 21 -14 21 5 0 15 -7 22 -17z m59
-30 c0 -20 -24 -11 -28 10 -2 12 1 15 12 11 9 -3 16 -13 16 -21z m-70 7 c0 -5
7 -7 15 -4 8 4 15 1 15 -5 0 -12 -11 -14 -34 -5 -18 7 -22 24 -6 24 6 0 10 -4
10 -10z m53 -42 c14 -15 18 -58 5 -58 -4 0 -8 12 -8 27 0 32 -12 23 -16 -13
-2 -19 3 -28 17 -31 11 -3 18 -11 15 -18 -2 -7 1 -18 7 -24 8 -8 8 -11 0 -11
-6 0 -20 15 -31 33 -12 17 -30 44 -42 60 -12 15 -17 27 -11 27 7 0 14 -7 17
-15 4 -8 10 -15 16 -15 5 0 7 4 4 9 -6 9 2 41 11 41 2 0 10 -6 16 -12z m-685
-15 c-10 -2 -26 -2 -35 0 -10 3 -2 5 17 5 19 0 27 -2 18 -5z m397 -33 c8 -13
-5 -13 -25 0 -13 8 -13 10 2 10 9 0 20 -4 23 -10z m65 6 c0 -11 -19 -15 -25
-6 -3 5 1 10 9 10 9 0 16 -2 16 -4z m180 -42 c0 -8 -4 -14 -10 -14 -5 0 -7 7
-4 15 4 8 1 15 -5 15 -6 0 -11 5 -11 11 0 8 5 8 15 -1 8 -7 15 -19 15 -26z
m-198 -6 c3 -7 4 -74 4 -148 l-1 -135 -140 0 -140 0 0 137 c0 76 3 138 8 138
4 0 7 -61 7 -135 l0 -136 123 3 122 3 -1 30 c-1 17 -2 78 -3 137 l-1 107 -132
4 -133 3 141 2 c106 1 143 -1 146 -10z m47 -91 c-2 -78 -2 -79 -9 -32 -12 73
-12 127 0 120 6 -3 9 -43 9 -88z m-214 63 c-26 -10 -87 -74 -62 -65 18 8 24
-9 7 -20 -5 -3 -10 -12 -10 -18 0 -7 7 -3 16 8 13 17 16 18 25 5 9 -13 10 -12
5 3 -3 9 -1 17 4 17 6 0 10 -5 10 -11 0 -5 5 -7 10 -4 20 12 9 25 -20 25 -16
0 -30 4 -30 10 0 17 60 41 83 34 19 -6 20 -5 8 10 -12 14 -9 16 33 16 l46 0 0
-48 c0 -34 -6 -54 -20 -70 -11 -12 -20 -25 -20 -29 0 -4 -16 -19 -36 -33 -32
-21 -34 -25 -18 -31 29 -12 37 -10 31 5 -7 17 19 30 27 13 3 -7 3 -1 0 12 -5
19 -3 23 9 18 10 -4 14 -1 12 6 -5 12 11 45 18 37 2 -3 1 -29 -1 -57 l-4 -53
-103 0 -102 0 -1 45 c-1 35 2 43 13 38 16 -6 20 -19 8 -26 -5 -2 -2 -2 6 0 8
2 25 -6 38 -18 37 -36 27 -15 -13 25 -20 20 -40 36 -45 36 -5 0 -9 29 -9 65
l0 65 53 -1 c37 0 46 -3 32 -9z m372 -18 c-30 -32 -21 -44 26 -38 39 5 40 4
18 -8 -41 -23 -96 -1 -71 29 8 10 8 15 -2 21 -9 6 -5 10 12 14 33 9 37 4 17
-18z m23 -17 c0 -8 -7 -15 -16 -15 -14 0 -14 3 -4 15 7 8 14 15 16 15 2 0 4
-7 4 -15z m28 -72 c-3 -30 -24 -43 -25 -16 -2 27 5 43 17 43 6 0 10 -12 8 -27z
m-49 8 c7 -5 10 -14 7 -20 -5 -8 -11 -7 -22 3 -24 24 -14 35 15 17z m-502 -93
c-2 -18 -4 -6 -4 27 0 33 2 48 4 33 2 -15 2 -42 0 -60z m548 -6 c-6 -15 -8
-15 -15 3 -4 12 -3 26 4 34 9 12 12 11 14 -3 2 -9 1 -25 -3 -34z m-208 -9 c-3
-10 -5 -2 -5 17 0 19 2 27 5 18 2 -10 2 -26 0 -35z m183 2 c0 -5 -5 -3 -10 5
-5 8 -10 20 -10 25 0 6 5 3 10 -5 5 -8 10 -19 10 -25z m-14 -19 c14 4 15 3 5
-4 -17 -12 1 -24 23 -16 13 5 15 1 12 -17 -3 -13 -5 -26 -5 -29 -1 -3 -5 0 -9
5 -4 6 -22 21 -39 34 -18 12 -33 27 -33 33 0 7 5 7 14 -1 7 -6 22 -9 32 -5z
m-10 -51 c9 -8 11 -15 6 -15 -5 0 -15 7 -22 15 -7 8 -9 15 -6 15 4 0 14 -7 22
-15z m4 -31 c0 -2 -7 -4 -15 -4 -8 0 -15 4 -15 10 0 5 7 7 15 4 8 -4 15 -8 15
-10z m-1 -39 c-25 -36 -47 -49 -31 -17 5 9 7 24 5 32 -3 11 -2 12 4 3 7 -9 12
-8 23 7 25 34 24 12 -1 -25z m-162 -118 c-2 -23 -3 -1 -3 48 0 50 1 68 3 42 2
-26 2 -67 0 -90z m211 107 c2 -15 -4 -19 -28 -20 -25 -1 -29 1 -19 13 10 11
14 11 21 1 6 -8 7 -5 3 11 -5 17 -4 22 6 19 8 -3 15 -13 17 -24z m-54 -89 c16
-12 17 -15 4 -15 -8 0 -21 7 -28 15 -16 19 -1 19 24 0z m47 -13 c-11 -4 -11
-6 0 -13 7 -4 10 -11 6 -15 -4 -4 -12 -3 -19 4 -8 8 -8 15 2 27 7 8 16 13 19
9 3 -4 0 -9 -8 -12z m-544 -89 c-2 -16 -4 -3 -4 27 0 30 2 43 4 28 2 -16 2
-40 0 -55z m513 53 c0 -3 -4 -8 -10 -11 -5 -3 -10 -1 -10 4 0 6 5 11 10 11 6
0 10 -2 10 -4z m30 -31 c14 -19 14 -19 -2 -6 -10 7 -18 18 -18 24 0 6 1 8 3 6
1 -2 9 -13 17 -24z m-30 -9 c0 -3 -4 -8 -10 -11 -5 -3 -10 -1 -10 4 0 6 5 11
10 11 6 0 10 -2 10 -4z m-173 -28 c-3 -8 -6 -5 -6 6 -1 11 2 17 5 13 3 -3 4
-12 1 -19z m205 -50 c-7 -7 -12 -8 -12 -2 0 14 12 26 19 19 2 -3 -1 -11 -7
-17z m-37 2 c3 -5 1 -10 -4 -10 -6 0 -11 5 -11 10 0 6 2 10 4 10 3 0 8 -4 11
-10z m-168 -67 c-3 -10 -5 -4 -5 12 0 17 2 24 5 18 2 -7 2 -21 0 -30z m-310
-150 c-3 -10 -5 -2 -5 17 0 19 2 27 5 18 2 -10 2 -26 0 -35z m-47 -3 c0 -16
-4 -30 -8 -30 -5 0 -7 14 -4 30 2 17 6 30 8 30 2 0 4 -13 4 -30z m185 11 c3
-5 -8 -16 -24 -24 l-30 -15 16 24 c16 25 28 30 38 15z m76 -13 c11 -21 11 -22
-4 -9 -10 7 -17 17 -17 22 0 15 9 10 21 -13z m-37 -14 c3 -8 2 -12 -4 -9 -6 3
-10 10 -10 16 0 14 7 11 14 -7z m-227 -141 c-2 -21 -4 -6 -4 32 0 39 2 55 4
38 2 -18 2 -50 0 -70z m253 67 c0 -5 -5 -10 -11 -10 -5 0 -7 5 -4 10 3 6 8 10
11 10 2 0 4 -4 4 -10z m-21 -22 c13 -20 12 -22 -1 -11 -8 7 -18 10 -21 6 -4
-3 -7 1 -7 10 0 24 13 21 29 -5z m-252 -20 c-3 -8 -6 -5 -6 6 -1 11 2 17 5 13
3 -3 4 -12 1 -19z m201 -17 c-7 -12 -16 -21 -21 -21 -8 0 0 17 18 36 16 18 18
8 3 -15z m-131 -43 c-2 -13 -4 -3 -4 22 0 25 2 35 4 23 2 -13 2 -33 0 -45z
m50 35 c2 -6 -3 -13 -11 -16 -10 -4 -14 0 -13 14 1 20 18 21 24 2z m163 -8 c0
-8 -7 -15 -15 -15 -13 0 -14 3 -3 15 16 18 18 18 18 0z m-22 -42 c-21 -2 -57
-2 -80 0 -24 2 -7 4 37 4 44 0 63 -2 43 -4z m-203 -32 c-19 -8 -18 -9 5 -13
20 -4 17 -6 -11 -7 -23 -1 -36 3 -36 12 0 8 13 14 31 14 25 2 27 0 11 -6z
m105 0 c0 -12 -20 -25 -27 -18 -7 7 6 27 18 27 5 0 9 -4 9 -9z m137 3 c-3 -3
-12 -4 -19 -1 -8 3 -5 6 6 6 11 1 17 -2 13 -5z m-32 -14 c3 -5 -1 -10 -9 -10
-9 0 -16 5 -16 10 0 6 4 10 9 10 6 0 13 -4 16 -10z m75 -10 c8 -5 11 -10 5
-10 -5 0 -17 5 -25 10 -8 5 -10 10 -5 10 6 0 17 -5 25 -10z m-320 -60 c0 -16
-2 -30 -4 -30 -2 0 -6 14 -8 30 -3 17 -1 30 4 30 4 0 8 -13 8 -30z m298 5 c7
-3 11 -20 10 -42 l-1 -38 -4 38 -4 37 -130 0 c-71 0 -129 3 -129 8 0 7 235 5
258 -3z m-164 -47 c-3 -4 -9 -8 -15 -8 -5 0 -9 4 -9 8 0 5 7 9 15 9 8 0 12 -4
9 -9z m81 -8 c3 -6 -1 -7 -9 -4 -18 7 -21 14 -7 14 6 0 13 -4 16 -10z m-115
-8 c0 -4 -10 -13 -22 -21 -20 -13 -22 -12 -11 1 7 8 10 18 6 21 -3 4 1 7 10 7
10 0 17 -3 17 -8z m74 -26 c-10 -8 -21 -12 -24 -10 -5 6 21 24 34 24 6 0 1 -6
-10 -14z m-177 -18 c-3 -8 -6 -5 -6 6 -1 11 2 17 5 13 3 -3 4 -12 1 -19z m134
6 c12 -15 11 -16 -9 -10 -22 7 -31 -7 -12 -19 6 -4 8 -11 4 -16 -3 -6 -13 -1
-21 11 -14 19 -13 23 3 35 11 8 20 15 20 15 1 0 8 -7 15 -16z m89 -9 c7 -8 8
-15 2 -15 -5 0 -15 7 -22 15 -7 8 -8 15 -2 15 5 0 15 -7 22 -15z m30 -31 c0
-3 -7 -12 -15 -20 -16 -17 -18 -14 -9 10 6 15 24 23 24 10z m-125 -34 c3 -5 1
-10 -4 -10 -6 0 -11 5 -11 10 0 6 2 10 4 10 3 0 8 -4 11 -10z m43 -3 c8 -10 6
-13 -7 -13 -11 0 -17 6 -14 13 3 7 6 13 8 13 1 0 7 -6 13 -13z m72 -11 c0 -3
-4 -8 -10 -11 -5 -3 -10 -1 -10 4 0 6 5 11 10 11 6 0 10 -2 10 -4z m67 -18
c-3 -8 -6 -5 -6 6 -1 11 2 17 5 13 3 -3 4 -12 1 -19z m-217 -13 c11 -13 10
-14 -4 -9 -9 3 -16 10 -16 15 0 13 6 11 20 -6z m150 -10 c-7 -8 -19 -15 -27
-15 -10 0 -8 6 8 19 27 22 38 19 19 -4z m53 -62 c-7 -2 -19 -2 -25 0 -7 3 -2
5 12 5 14 0 19 -2 13 -5z m-25 -40 c2 -9 -7 -13 -28 -13 -28 0 -31 2 -20 15
15 18 41 16 48 -2z m52 -3 c-8 -5 -22 -10 -30 -10 -13 0 -13 1 0 10 8 5 22 10
30 10 13 0 13 -1 0 -10z"/>
<path d="M7705 5480 c3 -5 8 -10 11 -10 2 0 4 5 4 10 0 6 -5 10 -11 10 -5 0
-7 -4 -4 -10z"/>
<path d="M7667 5464 c20 -9 3 -35 -19 -28 -18 5 -18 4 3 -28 l22 -34 22 20
c12 12 21 26 20 32 -2 20 -27 44 -44 43 -9 0 -11 -3 -4 -5z m22 -45 c-13 -26
-23 -18 -14 10 3 12 11 19 16 16 5 -4 5 -14 -2 -26z"/>
<path d="M7595 5379 c-4 -6 -5 -12 -2 -15 2 -3 7 2 10 11 7 17 1 20 -8 4z"/>
<path d="M7574 5176 c5 -13 2 -17 -9 -13 -8 4 -17 2 -20 -3 -4 -6 15 -9 47 -9
29 1 42 4 28 6 -13 3 -30 12 -38 21 -12 16 -13 15 -8 -2z"/>
<path d="M7591 5071 c-16 -12 -20 -21 -12 -25 8 -5 8 -13 0 -29 -7 -12 -15
-24 -18 -27 -3 -3 -13 -14 -21 -24 -14 -17 -13 -18 5 -13 11 4 27 2 35 -4 13
-9 12 -10 -2 -5 -19 6 -25 -9 -8 -19 19 -12 10 -22 -17 -19 -16 2 -22 1 -15
-2 6 -3 12 -12 12 -20 0 -19 7 -18 38 7 35 27 40 79 8 76 -23 -2 -30 23 -7 31
8 3 11 0 7 -7 -10 -16 1 -14 24 6 14 13 17 20 8 30 -8 10 -7 12 3 8 18 -7 21
36 5 47 -15 11 -18 10 -45 -11z m39 -1 c0 -5 -9 -14 -20 -20 -23 -12 -26 -6
-7 15 14 17 27 19 27 5z"/>
<path d="M7589 4878 c-8 -7 -21 -22 -29 -33 -12 -17 -11 -17 11 3 15 13 38 22
57 22 32 0 43 -13 20 -24 -7 -3 -3 -3 10 0 12 3 22 4 22 2 1 -2 3 -19 6 -39 3
-21 1 -40 -4 -43 -6 -3 -8 2 -5 13 3 10 0 22 -6 26 -6 3 -11 3 -10 -2 1 -4 -1
-16 -5 -25 -5 -11 -2 -23 8 -33 14 -14 17 -13 31 15 19 36 12 70 -21 105 -25
27 -61 33 -85 13z"/>
<path d="M7615 4830 c-3 -5 -1 -10 4 -10 6 0 11 5 11 10 0 6 -2 10 -4 10 -3 0
-8 -4 -11 -10z"/>
<path d="M7540 4805 c0 -49 68 -106 107 -90 17 6 17 8 -2 23 -11 9 -19 25 -17
35 2 9 -2 17 -10 17 -10 0 -9 3 2 11 13 9 13 10 0 6 -8 -2 -14 -11 -12 -19 4
-24 -28 -31 -43 -11 -7 10 -11 21 -9 25 2 4 0 9 -6 13 -5 3 -10 -1 -10 -10z
m90 -80 c0 -3 -9 -1 -20 5 -11 6 -18 15 -15 21 6 9 35 -12 35 -26z"/>
<path d="M7570 4791 c0 -5 5 -13 10 -16 6 -3 10 -2 10 4 0 5 -4 13 -10 16 -5
3 -10 2 -10 -4z"/>
<path d="M6776 4528 c-9 -12 -16 -32 -16 -44 0 -46 17 -49 283 -52 224 -3 251
-2 268 14 26 23 26 80 0 94 -12 6 -117 10 -270 10 -247 0 -250 0 -265 -22z
m307 -5 c-7 -2 -21 -2 -30 0 -10 3 -4 5 12 5 17 0 24 -2 18 -5z m224 1 c-3 -3
-12 -4 -19 -1 -8 3 -5 6 6 6 11 1 17 -2 13 -5z"/>
<path d="M8043 4530 c-41 -24 -69 -52 -93 -93 -29 -47 -26 -81 11 -111 31 -26
31 -26 11 -44 -11 -9 -28 -29 -37 -44 -15 -24 -15 -28 -2 -28 8 0 25 8 38 19
13 10 67 39 121 64 91 42 118 66 118 101 0 12 -10 10 -53 -9 -64 -30 -118 -25
-147 13 -26 33 -25 48 5 68 22 14 27 14 56 0 17 -9 35 -14 39 -11 13 8 19 59
9 77 -13 23 -36 23 -76 -2z"/>
<path d="M6796 4333 c-17 -181 -39 -341 -50 -375 -13 -36 -12 -38 6 -38 11 0
52 17 90 37 69 36 107 75 144 145 20 39 36 164 29 231 l-7 57 -103 0 -104 0
-5 -57z m157 30 c-23 -2 -64 -2 -90 0 -26 2 -7 3 42 3 50 0 71 -1 48 -3z"/>
<path d="M7081 4381 c-22 -14 -11 -213 16 -273 41 -90 126 -159 240 -193 22
-6 22 -6 8 42 -22 74 -42 207 -50 326 l-7 107 -97 0 c-53 0 -102 -4 -110 -9z
m157 -18 c-26 -2 -71 -2 -100 0 -29 2 -8 3 47 3 55 0 79 -1 53 -3z"/>
<path d="M6479 4262 c-28 -25 -32 -36 -35 -88 -3 -42 -1 -52 5 -33 22 67 53
88 81 54 17 -21 27 -19 33 6 8 29 -8 65 -32 79 -17 8 -26 5 -52 -18z"/>
<path d="M8046 4094 c-37 -80 -39 -86 -27 -125 7 -23 17 -110 22 -193 8 -146
23 -350 54 -756 14 -177 13 -284 -1 -378 -13 -87 45 26 77 147 25 98 25 264
-1 622 -10 151 -21 304 -24 341 l-5 67 27 -11 c15 -7 33 -16 40 -21 28 -22 22
10 -36 165 -33 90 -64 175 -67 191 -4 15 -10 29 -14 31 -3 2 -24 -34 -45 -80z"/>
<path d="M6380 3999 c13 -44 18 -46 30 -15 15 40 13 46 -14 46 -23 0 -24 -2
-16 -31z"/>
<path d="M6425 4000 c-4 -12 -5 -24 -2 -27 3 -2 8 5 12 17 4 12 5 24 2 27 -3
2 -8 -5 -12 -17z"/>
<path d="M7974 3970 c3 -19 13 -138 21 -265 9 -126 23 -300 31 -385 9 -85 18
-274 20 -419 2 -146 8 -269 12 -273 11 -11 11 -13 17 217 3 116 1 194 -4 186
-5 -8 -9 26 -9 88 -1 56 -3 110 -6 119 -6 20 -27 230 -31 317 -2 33 -8 103
-14 155 -6 52 -11 129 -11 170 0 48 -6 84 -16 100 l-15 25 5 -35z m83 -1322
c-3 -8 -6 -5 -6 6 -1 11 2 17 5 13 3 -3 4 -12 1 -19z"/>
<path d="M7690 3784 c-85 -36 -198 -82 -250 -104 -52 -21 -151 -62 -220 -90
-69 -29 -135 -61 -147 -72 -24 -22 -39 -63 -20 -55 7 3 55 23 107 45 52 22
165 69 250 105 85 36 198 82 250 102 116 45 148 61 178 88 21 20 30 47 15 47
-5 -1 -78 -30 -163 -66z"/>
<path d="M6025 3821 c-68 -17 -124 -61 -144 -114 -27 -70 -2 -181 47 -213 15
-10 31 -21 37 -26 5 -4 45 -35 88 -68 42 -33 77 -63 77 -67 0 -3 -17 -26 -37
-52 -78 -94 -127 -185 -169 -311 -26 -78 -28 -98 -28 -236 l-1 -152 39 -76
c45 -87 100 -147 177 -193 68 -41 144 -60 286 -74 148 -14 245 -2 382 51 99
37 141 60 113 60 -7 0 -12 4 -12 8 0 13 76 35 98 30 10 -3 27 -1 36 4 11 6 21
6 29 -1 7 -5 36 -13 65 -17 28 -3 52 -11 52 -17 0 -18 105 0 184 33 146 61
402 272 492 404 50 74 74 160 74 267 0 160 -38 267 -126 356 -80 80 -154 82
-229 5 -82 -83 -115 -205 -77 -284 12 -24 31 -49 44 -57 13 -8 70 -16 145 -21
140 -8 176 -23 181 -76 2 -24 -7 -41 -45 -84 -100 -114 -240 -231 -372 -314
-217 -134 -426 -127 -500 18 -37 71 -41 207 -11 346 33 156 14 144 -33 -20
-17 -60 -21 -104 -21 -220 l-1 -145 38 -79 c20 -43 37 -79 37 -81 0 -1 -37 -9
-82 -16 -125 -21 -413 -18 -513 5 -241 55 -378 187 -392 380 -9 117 20 208
108 337 44 66 116 139 136 139 7 0 16 -7 19 -15 11 -26 24 -16 30 23 4 24 14
44 27 52 111 71 200 120 209 114 6 -4 8 -3 5 3 -3 5 31 27 76 48 310 144 307
142 321 177 7 18 16 49 20 69 8 43 19 39 -179 63 -325 41 -620 56 -700 37z
m325 -138 c66 -6 78 -9 55 -14 -16 -4 4 -5 46 -2 45 3 79 1 82 -5 4 -5 29 -7
57 -4 27 2 50 2 50 -2 0 -3 -46 -29 -102 -57 -84 -42 -181 -102 -313 -193 -10
-7 -26 4 -60 42 -26 29 -85 80 -131 113 -64 47 -84 67 -84 85 0 18 8 26 33 33
39 11 250 14 367 4z m1364 -403 c43 -48 45 -59 9 -62 -118 -6 -173 8 -173 47
0 28 41 55 84 55 38 0 48 -5 80 -40z"/>
<path d="M6228 3673 c17 -2 47 -2 65 0 17 2 3 4 -33 4 -36 0 -50 -2 -32 -4z"/>
<path d="M5970 3657 c0 -8 19 -27 43 -44 23 -17 58 -45 77 -62 48 -43 71 -56
64 -36 -4 9 -44 43 -90 76 -46 34 -81 65 -78 70 3 5 0 9 -5 9 -6 0 -11 -6 -11
-13z"/>
<path d="M6190 3465 c13 -14 25 -25 27 -25 9 0 -33 49 -41 50 -5 0 1 -11 14
-25z"/>
<path d="M7697 3265 c10 -13 22 -25 27 -25 5 0 -1 11 -14 25 -30 32 -36 32
-13 0z"/>
<path d="M6911 3683 c-1 -6 -4 -20 -7 -30 -5 -17 -5 -17 6 0 6 10 9 23 6 30
-3 9 -5 9 -5 0z"/>
<path d="M7505 3436 c-48 -59 -75 -133 -74 -199 l2 -52 7 60 c7 67 28 117 77
188 42 59 36 61 -12 3z"/>
<path d="M6791 3347 c-29 -84 -31 -141 -6 -167 17 -17 23 -18 45 -7 14 7 26
22 28 35 3 19 0 21 -26 16 -27 -5 -31 -3 -37 24 -3 17 1 56 10 92 9 34 14 64
12 66 -2 2 -13 -25 -26 -59z"/>
<path d="M6278 3295 c-3 -5 -8 -30 -12 -55 l-6 -45 15 40 c15 37 17 82 3 60z"/>
<path d="M7156 3173 c-45 -118 -55 -193 -33 -246 9 -20 23 -37 31 -37 8 0 16
-6 18 -12 9 -25 60 23 84 78 31 70 30 83 -2 45 -49 -58 -104 -28 -104 56 0 23
12 79 26 123 14 45 24 84 21 86 -2 3 -21 -39 -41 -93z"/>
<path d="M6109 3153 c-13 -16 -12 -17 4 -4 16 13 21 21 13 21 -2 0 -10 -8 -17
-17z"/>
<path d="M6052 3067 c-60 -88 -89 -270 -58 -364 9 -27 30 -65 47 -84 30 -34
30 -34 10 -2 -25 37 -27 50 -5 32 14 -12 14 -8 -1 26 -51 118 -46 257 14 378
25 51 23 56 -7 14z"/>
<path d="M6375 2965 c-19 -31 -35 -58 -35 -62 0 -9 50 -53 60 -53 16 0 79 -47
73 -54 -4 -3 -4 -6 -1 -6 9 0 74 102 82 127 6 20 -1 28 -55 63 -34 22 -68 40
-75 40 -7 0 -29 -25 -49 -55z"/>
<path d="M7743 2928 c-109 -115 -181 -177 -278 -241 -91 -61 -203 -117 -233
-117 -15 -1 -15 -2 1 -11 38 -22 162 37 308 147 74 56 289 265 289 282 0 23
-18 11 -87 -60z"/>
<path d="M6960 2616 c0 -2 8 -10 18 -17 15 -13 16 -12 3 4 -13 16 -21 21 -21
13z"/>
<path d="M6143 2545 c16 -15 25 -30 21 -37 -5 -8 -2 -9 9 -5 12 4 17 1 17 -9
0 -11 6 -15 20 -11 11 3 18 1 15 -3 -7 -12 91 -42 141 -44 23 0 40 -4 38 -8
-8 -12 225 -21 269 -10 23 6 51 13 62 16 11 2 -38 4 -108 5 -86 1 -163 8 -230
22 -100 20 -226 68 -248 95 -6 8 -17 14 -23 14 -6 0 2 -12 17 -25z m190 -92
c-7 -2 -19 -2 -25 0 -7 3 -2 5 12 5 14 0 19 -2 13 -5z"/>
<path d="M7845 2545 c-15 -15 -25 -35 -24 -52 0 -15 3 -22 6 -15 2 7 13 17 23
22 28 15 52 -13 40 -46 -10 -24 -50 -84 -77 -112 -26 -27 -10 -25 25 3 7 5 33
36 58 69 36 48 44 66 44 101 0 30 -5 45 -16 49 -30 12 -55 6 -79 -19z"/>
<path d="M6120 2536 c0 -2 8 -10 18 -17 15 -13 16 -12 3 4 -13 16 -21 21 -21
13z"/>
</g>
</svg>
